<svg xmlns="http://www.w3.org/2000/svg" viewBox="0 0 240 48" preserveAspectRatio="xMaxYMid slice">
  <!-- 통짜 밝은 면을 두지 않는다. 면이 서면 배경이 아니라 얹힌 물건으로 읽힌다. -->
  <g fill="#4a4038">
    <path d="M158 48V12a10 10 0 0 1 10-10h48a10 10 0 0 1 10 10v36z"/>
  </g>
  <circle cx="192" cy="26" r="14" fill="none" stroke="#b99a48" stroke-width="2.5"/>
  <circle cx="192" cy="26" r="5" fill="#b99a48"/>
  <g stroke="#b99a48" stroke-width="2.5" stroke-linecap="round">
    <path d="M192 12v-5M192 45v-5M178 26h-5M211 26h-5M182 16l-4-4M202 36l4 4M202 16l4-4M182 36l-4 4"/>
  </g>
  <g fill="#b99a48" opacity="0.85">
    <rect x="126" y="36" width="18" height="9" rx="2"/>
    <rect x="132" y="28" width="18" height="8" rx="2"/>
    <rect x="104" y="40" width="16" height="6" rx="2"/>
  </g>
</svg>
