<svg xmlns="http://www.w3.org/2000/svg" viewBox="0 0 64 64" role="img" aria-label="잉웅">
  <!--
    이 한 장만 사람 얼굴이라 상자가 다르다. 다른 아홉은 rx 9 정사각인데
    여기는 세로로 길고 아래로 좁아지는 계란형이다 — 정사각으로 두면
    누구를 그려도 같은 얼굴이 된다. 폭 35 에 세로 41 이 그 비율이다.
  -->
  <defs>
    <clipPath id="ig-face">
      <path d="M14.4 21.4C14.4 15 18.6 10.5 24.8 10.5H39.2C45.4 10.5 49.6 15 49.6 21.4V33.4c0 5.8-3.4 11-8.2 14.2-3.2 2.1-6.4 3-9.4 3s-6.2-.9-9.4-3c-4.8-3.2-8.2-8.4-8.2-14.2Z"/>
    </clipPath>
  </defs>

  <!--
    목·어깨. 얼굴보다 먼저 깔려 턱에 가린다. 칼라를 턱 가까이 올리면
    목이 없어져 머리가 어깨에 얹힌 꼴이 되므로, 턱과 6 을 띄운다.
  -->
  <path d="M28 43.5h8v15h-8z" fill="#dfb88e"/>
  <path d="M6 64c.5-6.6 6.8-10.2 17.4-11 1.8 2.9 4.8 4.3 8.6 4.3s6.8-1.4 8.6-4.3C51 53.8 57.5 57.4 58 64Z"
        fill="#2b2b33" stroke="#3b3222" stroke-width="3" stroke-linejoin="round"/>

  <!-- 얼굴. -->
  <path d="M14.4 21.4C14.4 15 18.6 10.5 24.8 10.5H39.2C45.4 10.5 49.6 15 49.6 21.4V33.4c0 5.8-3.4 11-8.2 14.2-3.2 2.1-6.4 3-9.4 3s-6.2-.9-9.4-3c-4.8-3.2-8.2-8.4-8.2-14.2Z"
        fill="#efd3ad" stroke="#3b3222" stroke-width="3" stroke-linejoin="round"/>

  <g clip-path="url(#ig-face)">
    <ellipse cx="20.6" cy="40.2" rx="3.8" ry="2.2" fill="#e08a7a" opacity="0.18"/>
    <ellipse cx="43.4" cy="40.2" rx="3.8" ry="2.2" fill="#e08a7a" opacity="0.18"/>
    <!-- 잔수염은 면이 아니라 그림자다. 30px 에서는 사라진다. -->
    <ellipse cx="32" cy="41.2" rx="3.2" ry="1.5" fill="#6b5a3e" opacity="0.08"/>
    <ellipse cx="32" cy="46.2" rx="7.8" ry="6" fill="#6b5a3e" opacity="0.12"/>
  </g>

  <!--
    머리. 헤어라인이 눈썹보다 6 위에서 끝나야 이마가 넓게 남는다 —
    옆머리를 눈높이까지 내리면 곧장 헬멧이 된다. 가르마는 4.5:5.5 로
    넓은 쪽 앞머리가 왼쪽 관자까지 C 로 떨어진다.

    좌표는 오른쪽으로 흐르게 적고 통째로 뒤집는다. 손으로 뒤집으면
    곡선 열넷의 x 를 하나씩 빼야 해서 한 자만 틀려도 티가 안 나고 남는다.
  -->
  <g transform="translate(64 0) scale(-1 1)">
  <path d="M12.2 28.6C11.4 26.7 11.1 24.7 11.4 22.4 12.8 11.2 24.8 5 32 6.4 39.2 5 51.2 11.2 52.6 22.4 52.9 24.7 52.6 26.7 51.8 28.6 49 28.8 45 28.2 41.6 26.8 38 25.2 34.6 23.4 32.6 21.4 31.8 20.8 31.2 20.4 30.4 20.4 29.4 21.6 28.2 22 27 23.4 25 25.8 21.8 25.8 19.6 23 17.8 21.8 13.8 24 12.2 28.6Z"
        fill="#2e2620"/>
  <!-- 물결. 봉우리가 아니라 잔 물결이라 선이 얕고, 가르마에서 갈라져 나간다. -->
  <g stroke="#181310" stroke-width="1.5" stroke-linecap="round" fill="none" opacity="0.75">
    <path d="M32.4 15.2c6 1 11.4 4.6 14 9.6"/>
    <path d="M29 15c-3.8-.4-7.6.8-10.2 3.4"/>
  </g>
  <!-- 가르마는 모양이 아니라 갈라진 «선»이다. -->
  <path d="M30.4 20.4C30.2 16.6 30.4 12.4 31.2 9" stroke="#100d0a" stroke-width="1.8" stroke-linecap="round" fill="none" opacity="0.85"/>
  </g>

  <!-- 눈썹. 굵은 일자에 산이 없고, 눈과의 간격이 좁다. -->
  <g stroke="#2e2620" stroke-width="2.9" stroke-linecap="round">
    <path d="M20.2 30.1 29 28.9"/>
    <path d="M43.8 30.1 35 28.9"/>
  </g>

  <!--
    눈. 다른 아바타처럼 동그란 알로 두면 이 사람이 아니다 —
    가늘고 길게 눕히고 바깥쪽 끝을 내려 눈꼬리를 처지게 한다.
  -->
  <ellipse cx="24.6" cy="34.8" rx="4.6" ry="2" fill="#3b3222" transform="rotate(-8 24.6 34.8)"/>
  <ellipse cx="39.4" cy="34.8" rx="4.6" ry="2" fill="#3b3222" transform="rotate(8 39.4 34.8)"/>

  <!-- 입. 한쪽 끝만 올라간다. -->
  <path d="M27.6 43.6q4 3 8.8-1.6" stroke="#3b3222" stroke-width="3" stroke-linecap="round" fill="none"/>
</svg>
